<?xml version="1.0" encoding="utf-8" standalone="no"?>
<!DOCTYPE svg PUBLIC "-//W3C//DTD SVG 1.1//EN"
  "http://www.w3.org/Graphics/SVG/1.1/DTD/svg11.dtd">
<svg xmlns:xlink="http://www.w3.org/1999/xlink" width="288pt" height="288pt" viewBox="0 0 288 288" xmlns="http://www.w3.org/2000/svg" version="1.1">
 <metadata>
  <rdf:RDF xmlns:dc="http://purl.org/dc/elements/1.1/" xmlns:cc="http://creativecommons.org/ns#" xmlns:rdf="http://www.w3.org/1999/02/22-rdf-syntax-ns#">
   <cc:Work>
    <dc:type rdf:resource="http://purl.org/dc/dcmitype/StillImage"/>
    <dc:date>2025-03-08T01:49:10.814301</dc:date>
    <dc:format>image/svg+xml</dc:format>
    <dc:creator>
     <cc:Agent>
      <dc:title>Matplotlib v3.6.3, https://matplotlib.org/</dc:title>
     </cc:Agent>
    </dc:creator>
   </cc:Work>
  </rdf:RDF>
 </metadata>
 <defs>
  <style type="text/css">*{stroke-linejoin: round; stroke-linecap: butt}</style>
 </defs>
 <g id="figure_1">
  <g id="patch_1">
   <path d="M 0 288 
L 288 288 
L 288 0 
L 0 0 
L 0 288 
z
" style="fill: none"/>
  </g>
  <g id="axes_1">
   <g id="patch_2">
    <path d="M 147.6 44.64 
L 60.304639 95.04 
L 60.304639 195.84 
L 147.6 246.24 
L 234.895361 195.84 
L 234.895361 95.04 
L 147.6 44.64 
z
" clip-path="url(#p7f00e21c9e)" style="fill: none; stroke: #000000; stroke-linejoin: miter"/>
   </g>
   <g id="patch_3">
    <path d="M 147.6 145.44 
L 147.6 44.64 
L 60.304639 95.04 
z
" clip-path="url(#p7f00e21c9e)" style="fill: #d32f2f; stroke: #000000; stroke-linejoin: miter"/>
   </g>
   <g id="patch_4">
    <path d="M 147.6 145.44 
L 60.304639 95.04 
L 60.304639 195.84 
z
" clip-path="url(#p7f00e21c9e)" style="fill: #f57c00; stroke: #000000; stroke-linejoin: miter"/>
   </g>
   <g id="patch_5">
    <path d="M 147.6 145.44 
L 60.304639 195.84 
L 147.6 246.24 
z
" clip-path="url(#p7f00e21c9e)" style="fill: #fdd835; stroke: #000000; stroke-linejoin: miter"/>
   </g>
   <g id="patch_6">
    <path d="M 147.6 145.44 
L 147.6 246.24 
L 234.895361 195.84 
z
" clip-path="url(#p7f00e21c9e)" style="fill: #388e3c; stroke: #000000; stroke-linejoin: miter"/>
   </g>
   <g id="patch_7">
    <path d="M 147.6 145.44 
L 234.895361 195.84 
L 234.895361 95.04 
z
" clip-path="url(#p7f00e21c9e)" style="fill: #1976d2; stroke: #000000; stroke-linejoin: miter"/>
   </g>
   <g id="patch_8">
    <path d="M 147.6 145.44 
L 234.895361 95.04 
L 147.6 44.64 
z
" clip-path="url(#p7f00e21c9e)" style="fill: #9c27b0; stroke: #000000; stroke-linejoin: miter"/>
   </g>
  </g>
 </g>
 <defs>
  <clipPath id="p7f00e21c9e">
   <rect x="36.72" y="34.56" width="221.76" height="221.76"/>
  </clipPath>
 </defs>
</svg>
